<?xml version="1.0" encoding="iso-8859-1"?>
<!-- Generator: Adobe Illustrator 16.0.0, SVG Export Plug-In . SVG Version: 6.00 Build 0)  -->
<!DOCTYPE svg PUBLIC "-//W3C//DTD SVG 1.1//EN" "http://www.w3.org/Graphics/SVG/1.1/DTD/svg11.dtd">
<svg version="1.1" id="Capa_1" xmlns="http://www.w3.org/2000/svg" xmlns:xlink="http://www.w3.org/1999/xlink" x="0px" y="0px"
	 width="102.219px" height="102.219px" viewBox="0 0 102.219 102.219" style="enable-background:new 0 0 102.219 102.219;"
	 xml:space="preserve">
<g>
	<g>
		<circle cx="30.577" cy="35.809" r="10.657"/>
		<path d="M49.315,45.826c-1.346-0.933-3.192-0.598-4.126,0.748l-5.438,7.847l-7.971-5.928c-0.113-0.083-0.236-0.167-0.359-0.241
			c-0.05-0.031-0.103-0.055-0.153-0.083c-1.843-1.209-4.102-1.807-6.463-1.539c-5.36,0.611-9.213,5.453-8.602,10.813l2.343,20.568
			c0.081,0.71,0.243,1.389,0.464,2.039l-1.391,4.424L3.232,88.166c-1.544,0.395-2.591,1.884-2.39,3.506
			c0.219,1.76,1.823,3.01,3.583,2.792l17.395-2.157c1.246-0.164,2.41-0.945,2.983-2.168l0.24-0.513l1.456-3.108
			c0.567,0.104,1.149,0.16,1.741,0.16c0.262,0,0.527-0.023,0.792-0.045l1.699,4.057L10.998,95.91
			c-1.605,0.429-2.645,2.033-2.331,3.693c0.327,1.741,2.004,2.887,3.744,2.56l24.853-4.677c0.105-0.021,0.218-0.045,0.323-0.076
			c2.117-0.584,3.36-2.774,2.775-4.893l-0.111-0.4L37.155,80.91c0.699-1.551,1.013-3.299,0.806-5.109L36.365,61.79l2.129,1.286
			l0.378,0.23c0.066,0.039,0.134,0.076,0.204,0.112c1.773,0.915,3.954,0.219,4.868-1.556l6.315-12.242
			C50.936,48.318,50.553,46.685,49.315,45.826z"/>
		<circle cx="85.243" cy="10.657" r="10.657"/>
		<path d="M91.92,20.951c-4.007-0.133-7.514,2.184-9.122,5.592l-7.423,5.605l-16.991,2.538c-1.483,0.227-2.598,1.548-2.521,3.08
			c0.083,1.633,1.475,2.891,3.107,2.808l18.324-0.932c0.501-0.027,1.017-0.176,1.476-0.458l0.314-0.194l2.571-1.583l-0.397,13.426
			c-0.113,3.87,2.043,7.271,5.261,8.948L86.233,97.66c-0.01,1.894,1.428,3.529,3.35,3.714c2.034,0.194,3.842-1.298,4.036-3.333
			l3.774-39.521c2.006-1.729,3.313-4.252,3.398-7.108l0.604-20.406C101.557,25.613,97.314,21.111,91.92,20.951z"/>
		<path d="M49.34,32.824l0.86-0.066l0.236,0.927l5.461-0.422c0.101,0.297,0.354,0.819,0.903,1.212l6.069-1.395l-0.144-0.451
			c0.174-0.127,0.218-0.325,0.202-0.577l0.016-0.001c0.092-0.007,0.16-0.088,0.15-0.179l-0.201-2.624
			c-0.007-0.092-0.087-0.161-0.181-0.154l-0.897,0.071c-0.186-0.122-0.391-0.212-0.607-0.268l0.032-0.087
			c0.028-0.087-0.019-0.182-0.104-0.213l-0.157-0.055c-0.086-0.03-0.183,0.015-0.213,0.103l-0.066,0.19
			c-0.048,0.002-0.1,0.003-0.148,0.006l-9.668,0.749l-0.007-0.096c-0.006-0.092-0.086-0.162-0.181-0.155l-0.786,0.062
			c-0.092,0.007-0.159,0.087-0.153,0.178l0.009,0.099l-0.348,0.025l0.183,0.706l-0.443,0.036c-0.092,0.007-0.159,0.087-0.153,0.179
			l0.159,2.048C49.169,32.763,49.25,32.832,49.34,32.824z M58.672,33.047l0.166,0.502c-0.263,0.039-0.505,0.101-0.736,0.18
			c0.121-0.205,0.215-0.444,0.271-0.659L58.672,33.047z M58.105,33.092c-0.102,0.333-0.263,0.686-0.48,0.789
			c-0.032,0.016-0.057,0.043-0.064,0.075c-0.148,0.078-0.29,0.163-0.423,0.256c-0.469-0.293-0.699-0.712-0.808-0.983L58.105,33.092z
			"/>
	</g>
</g>
<g>
</g>
<g>
</g>
<g>
</g>
<g>
</g>
<g>
</g>
<g>
</g>
<g>
</g>
<g>
</g>
<g>
</g>
<g>
</g>
<g>
</g>
<g>
</g>
<g>
</g>
<g>
</g>
<g>
</g>
</svg>
